<svg width="120" height="120" viewBox="0 0 120 120" fill="none" xmlns="http://www.w3.org/2000/svg">
<path d="M56.9916 0.0184379C47.3616 0.134688 26.6578 1.71719 15.0778 12.3409C6.46406 20.8759 3.45656 33.4947 3.10406 49.0984C2.81156 64.6459 2.45906 93.8434 30.6028 101.793V113.902C30.6028 113.902 30.4266 118.747 33.6291 119.741C37.5741 120.99 39.8203 117.262 43.5703 113.257L50.5641 105.348C69.8203 106.95 84.5691 103.26 86.2678 102.712C90.1753 101.463 112.184 98.6509 115.78 69.4497C119.47 39.2922 113.984 20.2909 104.08 11.6959H104.02C101.032 8.94344 89.0203 0.190938 62.1853 0.0934379C62.1853 0.0934379 60.1941 -0.0415621 56.9916 0.0146879V0.0184379ZM57.3216 8.49719C60.0553 8.47844 61.7166 8.59469 61.7166 8.59469C84.4303 8.65469 95.2716 15.4909 97.8291 17.7934C106.169 24.9409 110.467 42.0709 107.32 67.2484C104.332 91.6609 86.4816 93.2059 83.1778 94.2597C81.7716 94.7097 68.7816 97.9122 52.4166 96.8584C52.4166 96.8584 40.2291 111.566 36.4191 115.353C35.8153 116.017 35.1103 116.212 34.6603 116.115C34.0153 115.957 33.8203 115.158 33.8578 114.063L33.9741 93.9672C10.1053 87.3672 11.5116 62.4634 11.7666 49.4547C12.0591 36.4459 14.5003 25.8034 21.7678 18.5959C31.5516 9.74969 49.1316 8.55719 57.3141 8.49719H57.3216ZM59.1216 21.5022C58.9251 21.5002 58.7302 21.5371 58.5481 21.6108C58.366 21.6845 58.2003 21.7935 58.0605 21.9316C57.9207 22.0696 57.8096 22.234 57.7336 22.4151C57.6577 22.5963 57.6183 22.7907 57.6178 22.9872C57.6178 23.8272 58.3003 24.4909 59.1216 24.4909C62.8397 24.4202 66.535 25.0863 69.9945 26.4508C73.4539 27.8153 76.609 29.8511 79.2778 32.4409C84.7266 37.7322 87.3816 44.8422 87.4828 54.1384C87.4828 54.9597 88.1466 55.6422 88.9866 55.6422V55.5822C89.3824 55.5832 89.7627 55.4277 90.0444 55.1495C90.3261 54.8713 90.4863 54.4931 90.4903 54.0972C90.6724 49.7215 89.9628 45.3545 88.4047 41.2616C86.8465 37.1686 84.4724 33.4353 81.4266 30.2884C75.4903 24.4872 67.9678 21.4984 59.1216 21.4984V21.5022ZM39.3553 24.9409C38.2939 24.7858 37.2113 24.9989 36.2878 25.5447H36.2091C34.065 26.8015 32.1336 28.3899 30.4866 30.2509C29.1178 31.8334 28.3753 33.4347 28.1803 34.9759C28.0641 35.8947 28.1428 36.8134 28.4166 37.6909L28.5141 37.7509C30.0553 42.2809 32.0691 46.6384 34.5291 50.7409C37.6979 56.5045 41.5976 61.8348 46.1316 66.5997L46.2666 66.7947L46.4803 66.9522L46.6153 67.1097L46.7728 67.2447C51.5549 71.7919 56.8981 75.7098 62.6728 78.9034C69.2728 82.4959 73.2778 84.1947 75.6816 84.8997V84.9372C76.3866 85.1509 77.0278 85.2484 77.6728 85.2484C79.7214 85.0983 81.6607 84.2666 83.1816 82.8859C85.0342 81.2385 86.6049 79.2991 87.8316 77.1447V77.1072C88.9828 74.9397 88.5928 72.8884 86.9316 71.5009C83.6046 68.5928 80.007 66.0098 76.1878 63.7872C73.6303 62.3997 71.0316 63.2397 69.9778 64.6459L67.7316 67.4772C66.5803 68.8834 64.4878 68.6884 64.4878 68.6884L64.4278 68.7259C48.8241 64.7397 44.6616 48.9409 44.6616 48.9409C44.6616 48.9409 44.4666 46.7922 45.9103 45.6972L48.7228 43.4322C50.0691 42.3372 51.0066 39.7422 49.5628 37.1809C47.3556 33.3565 44.7782 29.758 41.8678 26.4372C41.2316 25.6543 40.3389 25.1216 39.3478 24.9334L39.3553 24.9409ZM61.7166 29.3959C59.7253 29.3959 59.7253 32.4034 61.7353 32.4034C64.2114 32.4436 66.6552 32.9713 68.9272 33.9564C71.1992 34.9416 73.2548 36.3648 74.9766 38.1447C76.5472 39.8772 77.754 41.9074 78.5257 44.1148C79.2974 46.3223 79.6182 48.6622 79.4691 50.9959C79.4759 51.3909 79.6371 51.7675 79.9182 52.045C80.1992 52.3226 80.5778 52.479 80.9728 52.4809L81.0328 52.5597C81.4307 52.5567 81.8115 52.3974 82.0929 52.116C82.3742 51.8346 82.5336 51.4538 82.5366 51.0559C82.6716 45.0972 80.8191 40.0984 77.1853 36.0934C73.5328 32.0884 68.4366 29.8422 61.9303 29.3959H61.7166V29.3959ZM64.1803 37.4809C62.1291 37.4209 62.0503 40.4884 64.0828 40.5484C69.0253 40.8034 71.4253 43.3009 71.7403 48.4384C71.7472 48.8284 71.9064 49.2002 72.1839 49.4742C72.4615 49.7483 72.8353 49.9028 73.2253 49.9047H73.2853C73.4858 49.8961 73.6826 49.8476 73.8642 49.7622C74.0458 49.6767 74.2086 49.5559 74.343 49.4068C74.4774 49.2578 74.5807 49.0834 74.647 48.894C74.7133 48.7045 74.7412 48.5038 74.7291 48.3034C74.3766 41.6059 70.7241 37.8334 64.2403 37.4847H64.1803V37.4809Z" fill="black"/>
</svg>
