<svg width="19" height="18" viewBox="0 0 19 18" fill="none" xmlns="http://www.w3.org/2000/svg">
<path d="M14 0H5C2.16404 0 0 2.3133 0 5V13C0 15.6866 2.16404 18 5 18H14C16.8358 18 19 15.6866 19 13V5C19 2.3133 16.836 0 14 0ZM9 14C6.13533 14 4 11.7139 4 9C4 6.28611 6.13533 4 9 4C11.8647 4 15 6.28611 15 9C15 11.7139 11.8647 14 9 14ZM15 5C14.1534 5 13 4.802 13 4C13 3.198 14.1534 2 15 2C15.8466 2 16 3.198 16 4C16 4.802 15.8466 5 15 5Z" fill="#202020"/>
<circle cx="9.5" cy="9.5" r="4.5" stroke="#202020" stroke-width="2"/>
</svg>
