<svg width="120" height="120" viewBox="0 0 120 120" fill="none" xmlns="http://www.w3.org/2000/svg">
<path d="M108.422 14.8594C107.381 13.9778 106.122 13.3946 104.776 13.1718C103.431 12.9489 102.05 13.0948 100.781 13.5938L14.2499 47.5782C12.7322 48.1564 11.4466 49.2175 10.5911 50.5982C9.73563 51.9788 9.3577 53.6023 9.51553 55.2188C9.65633 56.8346 10.3172 58.3613 11.3989 59.5698C12.4807 60.7784 13.9251 61.6037 15.5155 61.9219L37.4999 66.2813V93.75C37.4991 95.2361 37.9398 96.6888 38.766 97.924C39.5922 99.1591 40.7667 100.121 42.1405 100.688C43.0497 101.053 44.0199 101.244 44.9999 101.25C45.9849 101.254 46.9608 101.06 47.8703 100.682C48.7798 100.304 49.6048 99.7479 50.2968 99.0469L62.4843 86.9063L80.9062 103.125C82.2662 104.325 84.0147 104.991 85.828 105C86.6254 105.016 87.4193 104.889 88.1718 104.625C89.4088 104.234 90.5221 103.526 91.4018 102.572C92.2815 101.619 92.897 100.452 93.1874 99.1875L110.812 22.2188C111.12 20.8907 111.061 19.5037 110.639 18.207C110.218 16.9103 109.452 15.753 108.422 14.8594V14.8594ZM40.3593 59.2032L17.0155 54.5625L82.453 28.8282L40.3593 59.2032ZM44.9999 93.75V71.5313L56.8124 81.9375L44.9999 93.75ZM85.8749 97.5L47.2499 63.5157L102.891 23.3438L85.8749 97.5Z" fill="black"/>
</svg>
