<svg width="60" height="43" viewBox="0 0 60 43" fill="none" xmlns="http://www.w3.org/2000/svg">
<path d="M42.2915 18.7174C42.2915 22.3307 45.2308 25.2701 48.8442 25.2701C52.4575 25.2701 55.3968 22.3307 55.3968 18.7174C55.3968 15.1041 52.4575 12.1641 48.8442 12.1641C45.2308 12.1641 42.2915 15.1041 42.2915 18.7174ZM48.8442 14.8307C50.9868 14.8307 52.7302 16.5741 52.7302 18.7174C52.7302 20.8607 50.9868 22.6034 48.8442 22.6034C46.7015 22.6034 44.9582 20.8601 44.9582 18.7174C44.9582 16.5747 46.7015 14.8307 48.8442 14.8307Z" fill="#F8450D"/>
<path d="M16.4556 27.9596C16.7056 28.3762 17.147 28.6062 17.5996 28.6062C17.8336 28.6062 18.0703 28.5449 18.285 28.4156L31.4636 20.4949C32.039 20.1489 32.2676 19.4289 31.997 18.8142L28.095 9.96091C27.759 9.12624 27.7863 8.23824 28.1696 7.52357C28.5316 6.85024 29.1763 6.38824 30.0096 6.21757L44.5456 2.95357C45.0263 2.85557 45.5136 2.95691 45.9163 3.24157C46.3183 3.52557 46.5763 3.95024 46.6443 4.43757C46.7696 5.34291 46.169 6.20557 45.2983 6.39624L35.2236 8.42224C34.459 8.58957 33.833 9.09291 33.5063 9.80424C33.179 10.5149 33.2043 11.3182 33.593 12.0409L42.679 27.8476C43.0456 28.4856 43.8603 28.7062 44.499 28.3389C45.1376 27.9722 45.3576 27.1569 44.9903 26.5189L36.055 10.9756L45.8456 9.00691C48.0903 8.51557 49.601 6.34757 49.285 4.07157C49.1176 2.86424 48.451 1.76824 47.4556 1.06424C46.4603 0.360907 45.2056 0.0982397 43.9863 0.34624L29.451 3.61024C27.8536 3.93691 26.5636 4.87824 25.821 6.26157C25.0616 7.67491 24.989 9.38691 25.639 10.9976L29.0836 18.8149L16.9116 26.1302C16.2803 26.5096 16.0763 27.3289 16.4556 27.9596Z" fill="#F8450D"/>
<path d="M58.6667 29.8413C56.4493 29.8413 55.264 30.6826 54.3107 31.358C53.4713 31.9533 52.8653 32.3833 51.498 32.3833C50.1307 32.3833 49.5247 31.9533 48.6853 31.358C47.7327 30.682 46.5467 29.8413 44.33 29.8413C42.1133 29.8413 40.9273 30.6826 39.9747 31.358C39.136 31.9533 38.5293 32.3833 37.1627 32.3833C35.796 32.3833 35.19 31.9533 34.3507 31.358C33.398 30.682 32.212 29.8413 29.9953 29.8413C27.7793 29.8413 26.5933 30.6826 25.6413 31.358C24.8027 31.9533 24.1967 32.3833 22.8307 32.3833C21.464 32.3833 20.858 31.9533 20.0187 31.358C19.066 30.682 17.88 29.8413 15.664 29.8413C13.448 29.8413 12.262 30.6826 11.31 31.358C10.4713 31.9533 9.86533 32.3833 8.49867 32.3833C7.132 32.3833 6.52667 31.9533 5.68733 31.358C4.73467 30.682 3.54933 29.8413 1.33333 29.8413C0.597333 29.8413 0 30.4386 0 31.1746C0 31.9106 0.597333 32.508 1.33333 32.508C2.7 32.508 3.30533 32.938 4.14467 33.5333C5.09733 34.2093 6.28267 35.05 8.49867 35.05C10.7153 35.05 11.9007 34.2086 12.8533 33.5333C13.692 32.938 14.298 32.508 15.6647 32.508C17.0313 32.508 17.6373 32.938 18.4767 33.5333C19.4293 34.2093 20.6153 35.05 22.8313 35.05C25.0473 35.05 26.2327 34.2086 27.1847 33.5333C28.0233 32.938 28.6293 32.508 29.9953 32.508C31.362 32.508 31.9687 32.938 32.8073 33.5333C33.76 34.2093 34.946 35.05 37.162 35.05C39.3787 35.05 40.5647 34.2086 41.5173 33.5333C42.356 32.938 42.9627 32.508 44.33 32.508C45.6973 32.508 46.3033 32.938 47.1427 33.5333C48.0953 34.2093 49.2813 35.05 51.4987 35.05C53.7153 35.05 54.9013 34.2093 55.854 33.5333C56.6933 32.938 57.2993 32.508 58.6667 32.508C59.4027 32.508 60 31.9106 60 31.1746C60 30.4386 59.4027 29.8413 58.6667 29.8413Z" fill="#F8450D"/>
<path d="M58.6667 37.6476C56.4493 37.6476 55.264 38.4883 54.3113 39.1643C53.472 39.7596 52.866 40.1896 51.4987 40.1896C50.1313 40.1896 49.5247 39.7596 48.6853 39.1643C47.7327 38.4883 46.5467 37.6476 44.33 37.6476C42.1133 37.6476 40.9273 38.4883 39.9747 39.1643C39.136 39.7596 38.5293 40.1896 37.1627 40.1896C35.796 40.1896 35.19 39.7596 34.3507 39.1643C33.398 38.4883 32.212 37.6476 29.9953 37.6476C27.7793 37.6476 26.594 38.489 25.6413 39.1643C24.8027 39.759 24.1967 40.189 22.8307 40.189C21.464 40.189 20.858 39.759 20.0187 39.1636C19.066 38.4876 17.88 37.647 15.664 37.647C13.448 37.647 12.262 38.4876 11.31 39.1636C10.4713 39.759 9.86533 40.189 8.49867 40.189C7.132 40.189 6.52667 39.759 5.68733 39.1636C4.73467 38.4876 3.54933 37.647 1.33333 37.647C0.597333 37.647 0 38.2443 0 38.9803C0 39.7163 0.597333 40.3136 1.33333 40.3136C2.7 40.3136 3.30533 40.7436 4.14467 41.339C5.09733 42.015 6.28267 42.8556 8.49867 42.8556C10.7153 42.8556 11.9007 42.0143 12.8533 41.339C13.692 40.7436 14.298 40.3136 15.6647 40.3136C17.0313 40.3136 17.6373 40.7436 18.4767 41.339C19.4293 42.015 20.6153 42.8556 22.8313 42.8556C25.0473 42.8556 26.2327 42.015 27.1847 41.339C28.0233 40.7436 28.6293 40.3136 29.9953 40.3136C31.3627 40.3136 31.9687 40.7436 32.8073 41.339C33.76 42.015 34.946 42.8556 37.162 42.8556C39.378 42.8556 40.5647 42.015 41.5167 41.339C42.356 40.7436 42.962 40.3136 44.3293 40.3136C45.6967 40.3136 46.3027 40.7436 47.142 41.339C48.0947 42.015 49.2807 42.8556 51.4973 42.8556C53.714 42.8556 54.9 42.015 55.8527 41.339C56.692 40.7436 57.298 40.3136 58.666 40.3136C59.402 40.3136 59.9993 39.7163 59.9993 38.9803C59.9993 38.2443 59.4027 37.6476 58.6667 37.6476Z" fill="#F8450D"/>
</svg>
