<svg width="30" height="20" viewBox="0 0 30 20" fill="none" xmlns="http://www.w3.org/2000/svg">
<path d="M28.9996 3.99989C28.6829 2.92767 27.177 1.2886 25.9996 0.999887C23.8487 0.464008 13.9996 0.999887 13.9996 0.999887C13.9996 0.999887 6.15055 0.484325 3.99962 0.999887C2.84489 1.2883 1.31636 2.92782 0.999621 3.99989C0.433579 5.95826 0.999621 9.99989 0.999621 9.99989C0.999621 9.99989 0.433579 14.062 0.999621 15.9999C1.3167 17.072 2.82207 18.7112 3.99962 18.9999C6.17303 19.5359 15.9996 18.9999 15.9996 18.9999C15.9996 18.9999 23.8487 19.5154 25.9996 18.9999C27.1772 18.7113 28.6825 17.072 28.9996 15.9999C29.5655 14.0414 28.9996 9.99989 28.9996 9.99989C28.9996 9.99989 29.5885 5.95826 28.9996 3.99989ZM11.9996 13.9999V5.99989L19.9996 9.99989L11.9996 13.9999Z" fill="#202020"/>
</svg>
