<?xml version="1.0" encoding="utf-8"?>
<!-- Svg Vector Icons : http://www.onlinewebfonts.com/icon -->
<!DOCTYPE svg PUBLIC "-//W3C//DTD SVG 1.1//EN" "http://www.w3.org/Graphics/SVG/1.1/DTD/svg11.dtd">
<svg version="1.1" xmlns="http://www.w3.org/2000/svg" xmlns:xlink="http://www.w3.org/1999/xlink" x="0px" y="0px" viewBox="0 0 1000 1000" enable-background="new 0 0 1000 1000" xml:space="preserve">
<metadata> Svg Vector Icons : http://www.onlinewebfonts.com/icon </metadata>
<g><path d="M980.2,980.2c-13.1,13-34.2,13-47.3,0L767.5,814.9c-13-13.1-13-34.2,0-47.2c13-13,34.2-13,47.3,0L980.2,933C993.3,946,993.3,967.1,980.2,980.2z M433.7,581.6h-10.7c-14,0-25.3-11.3-25.3-25.3V280.2c0-14,11.3-25.3,25.3-25.3h10.7c14,0,25.3,11.3,25.3,25.3v276.1C459,570.3,447.7,581.6,433.7,581.6z M556.3,459H300.5c-14,0-25.3-11.3-25.3-25.3v-10.7c0-14,11.3-25.3,25.3-25.3h255.7c14,0,25.3,11.3,25.3,25.3v10.7C581.5,447.7,570.2,459,556.3,459z M428.4,50.7c-208.7,0-378,169.2-378,377.9c0,208.7,169.3,377.9,378,377.9c208.7,0,377.9-169.2,377.9-377.9C806.3,219.9,637.1,50.7,428.4,50.7z M427.8,844.5C197.1,844.5,10,657.7,10,427.3C10,196.8,197.1,10,427.8,10c230.7,0,417.7,186.8,417.7,417.2C845.5,657.7,658.5,844.5,427.8,844.5z"/></g>
</svg>